<?xml version="1.0" encoding="UTF-8"?><svg xmlns:svg="http://www.w3.org/2000/svg" xmlns="http://www.w3.org/2000/svg" xmlns:xlink="http://www.w3.org/1999/xlink" version="1.0" width="681" height="212" viewBox="0 0 681 212" ><rect x="40" y="1" height="30" width="640" fill="#00AA00" /><line x1="40" y1="1" x2="680" y2="1" stroke="#000000" stroke-width="1" /><line x1="40" y1="31" x2="680" y2="31" stroke="#000000" stroke-width="1" /><line x1="680" y1="1" x2="680" y2="31" stroke="#000000" stroke-width="1" /><line x1="40" y1="1" x2="40" y2="31" stroke="#000000" stroke-width="1" /><text font-size="18" font-family="Palatino, Georgia, Times New Roman, serif" x="360" y="17" text-anchor="middle" dominant-baseline="middle" >Code</text><text font-size="11" font-family="Courier New, monospace" font-style="normal" dominant-baseline="middle" x="35" y="16" text-anchor="end" >00</text><text font-size="11" font-family="Courier New, monospace" font-style="normal" dominant-baseline="middle" x="35" y="46" text-anchor="end" >10</text><rect x="40" y="31" height="30" width="640" fill="#009A00" /><line x1="40" y1="31" x2="680" y2="31" stroke="#000000" stroke-width="1" /><line x1="40" y1="61" x2="680" y2="61" stroke="#000000" stroke-width="1" /><line x1="680" y1="31" x2="680" y2="61" stroke="#000000" stroke-width="1" /><line x1="40" y1="31" x2="40" y2="61" stroke="#000000" stroke-width="1" /><text font-size="18" font-family="Palatino, Georgia, Times New Roman, serif" x="360" y="47" text-anchor="middle" dominant-baseline="middle" >Library</text><text font-size="11" font-family="Courier New, monospace" font-style="normal" dominant-baseline="middle" x="35" y="76" text-anchor="end" >20</text><rect x="40" y="61" height="30" width="640" fill="#008A00" /><line x1="40" y1="61" x2="680" y2="61" stroke="#000000" stroke-width="1" /><line x1="40" y1="91" x2="680" y2="91" stroke="#000000" stroke-width="1" /><line x1="680" y1="61" x2="680" y2="91" stroke="#000000" stroke-width="1" /><line x1="40" y1="61" x2="40" y2="91" stroke="#000000" stroke-width="1" /><text font-size="18" font-family="Palatino, Georgia, Times New Roman, serif" x="360" y="77" text-anchor="middle" dominant-baseline="middle" >Globals</text><text font-size="11" font-family="Courier New, monospace" font-style="normal" dominant-baseline="middle" x="35" y="106" text-anchor="end" >30</text><rect x="40" y="91" height="30" width="640" fill="#007A00" /><line x1="40" y1="91" x2="680" y2="91" stroke="#000000" stroke-width="1" /><line x1="40" y1="121" x2="680" y2="121" stroke="#000000" stroke-width="1" /><line x1="680" y1="91" x2="680" y2="121" stroke="#000000" stroke-width="1" /><line x1="40" y1="91" x2="40" y2="121" stroke="#000000" stroke-width="1" /><text font-size="18" font-family="Palatino, Georgia, Times New Roman, serif" x="360" y="107" text-anchor="middle" dominant-baseline="middle" >ExtraCode</text><text font-size="11" font-family="Courier New, monospace" font-style="normal" dominant-baseline="middle" x="35" y="136" text-anchor="end" >40</text><rect x="40" y="121" height="30" width="640" fill="#666655" /><line x1="40" y1="121" x2="680" y2="121" stroke="#000000" stroke-width="1" /><line x1="40" y1="151" x2="680" y2="151" stroke="#000000" stroke-width="1" /><line x1="680" y1="121" x2="680" y2="151" stroke="#000000" stroke-width="1" /><line x1="40" y1="121" x2="40" y2="151" stroke="#000000" stroke-width="1" /><text font-size="18" font-family="Palatino, Georgia, Times New Roman, serif" x="360" y="137" text-anchor="middle" dominant-baseline="middle" >Heap</text><text font-size="11" font-family="Courier New, monospace" font-style="normal" dominant-baseline="middle" x="35" y="166" text-anchor="end" >50</text><rect x="40" y="151" height="30" width="640" fill="#FFFFFF" /><line x1="40" y1="151" x2="680" y2="151" stroke="#000000" stroke-width="1" /><line x1="40" y1="181" x2="680" y2="181" stroke="#000000" stroke-width="1" /><line x1="680" y1="151" x2="680" y2="181" stroke="#000000" stroke-width="1" /><line x1="40" y1="151" x2="40" y2="181" stroke="#000000" stroke-width="1" /><text font-size="11" font-family="Courier New, monospace" font-style="normal" dominant-baseline="middle" x="35" y="196" text-anchor="end" >60</text><rect x="40" y="181" height="30" width="640" fill="#5343FF" /><line x1="40" y1="181" x2="680" y2="181" stroke="#000000" stroke-width="1" /><line x1="40" y1="211" x2="680" y2="211" stroke="#000000" stroke-width="1" /><line x1="680" y1="181" x2="680" y2="211" stroke="#000000" stroke-width="1" /><line x1="40" y1="181" x2="40" y2="211" stroke="#000000" stroke-width="1" /><text font-size="18" font-family="Palatino, Georgia, Times New Roman, serif" x="360" y="197" text-anchor="middle" dominant-baseline="middle" >Stack</text><line x1="40" y1="181" x2="680" y2="181" stroke="#000000" stroke-width="1" /></svg>